<svg width="896" height="785" viewBox="0 0 896 785" fill="none" xmlns="http://www.w3.org/2000/svg">
<g opacity="0.1">
<path d="M416.023 219.442C398.163 205.775 394.226 179.821 407.23 161.473L440.966 113.871C453.97 95.5225 478.99 91.7272 496.85 105.394C514.711 119.061 518.647 145.015 505.643 163.364L471.907 210.965C458.904 229.314 433.883 233.109 416.023 219.442Z" fill="#5D3BEE"/>
<path d="M183.78 554.304C165.92 540.637 161.983 514.683 174.987 496.335L341.529 261.343C354.533 242.995 379.553 239.199 397.414 252.866C415.274 266.533 419.211 292.487 406.207 310.836L239.665 545.827C226.661 564.176 201.641 567.971 183.78 554.304Z" fill="#5D3BEE"/>
<path d="M133.966 860.82C116.106 847.153 112.169 821.199 125.173 802.85L615.516 110.972C628.52 92.6234 653.541 88.8282 671.401 102.495C689.261 116.162 693.198 142.116 680.194 160.464L189.85 852.343C176.846 870.691 151.826 874.487 133.966 860.82Z" fill="#5D3BEE"/>
<path d="M485.671 587.371C467.811 573.704 463.874 547.75 476.878 529.402L630.181 313.091C643.184 294.742 668.205 290.947 686.065 304.614C703.925 318.281 707.862 344.234 694.858 362.583L541.555 578.894C528.551 597.243 503.531 601.038 485.671 587.371Z" fill="#5D3BEE"/>
</g>
</svg>
